# xmcd
#
# Track frame offsets: 
#        150
#        18569
#        29388
#        50597
#        64739
#        78238
#        91199
#        114823
#        129006
#        143931
#        153915
#        175745
#        187466
#
# Disc length: 2573 seconds
#
# Revision: 0
# Processed by: cddbd v1.5.2PL0 Copyright (c) Steve Scherf et al.
# Submitted via: ExactAudioCopy v0.99pb4
#
DISCID=a30a0b0d
DTITLE=Bonzo ja Tõun - Diip
DYEAR=2010
DGENRE=Blues
TTITLE0=Mu huuled
TTITLE1=Vana pruut
TTITLE2=Vilma
TTITLE3=Ood pessimismile
TTITLE4=Uljalt ja ulakalt
TTITLE5=Kaugel kui sa
TTITLE6=Lugu
TTITLE7=Naiste sõrmed
TTITLE8=Diip
TTITLE9=Staadium
TTITLE10=Ei tea
TTITLE11=Mõtle minust
TTITLE12=Kaua peab ootama
EXTD=
EXTT0=
EXTT1=
EXTT2=
EXTT3=
EXTT4=
EXTT5=
EXTT6=
EXTT7=
EXTT8=
EXTT9=
EXTT10=
EXTT11=
EXTT12=
PLAYORDER=
